<svg width="229" height="64" viewBox="0 0 229 64" fill="none" xmlns="http://www.w3.org/2000/svg">
<path d="M75.232 30.152C75.424 30.2587 75.52 30.376 75.52 30.504C75.52 30.5893 75.488 30.696 75.424 30.824L72.416 37.16C72.3307 37.352 72.2027 37.448 72.032 37.448C71.9253 37.448 71.8293 37.4053 71.744 37.32L71.584 37.16C71.4773 37.0533 71.264 37 70.944 37H53.44C53.12 37 52.96 36.84 52.96 36.52V35.56C52.96 35.24 53.12 35.08 53.44 35.08H53.504C55.04 35.08 55.808 34.0667 55.808 32.04V17.992C55.808 15.9653 55.0293 14.952 53.472 14.952H53.44C53.12 14.952 52.96 14.792 52.96 14.472V13.512C52.96 13.1707 53.12 13 53.44 13H69.472C69.7493 13 69.952 12.9467 70.08 12.84L70.272 12.68C70.336 12.616 70.4213 12.584 70.528 12.584C70.6987 12.584 70.8373 12.6693 70.944 12.84L73.472 17.192C73.536 17.2773 73.568 17.3733 73.568 17.48C73.568 17.6293 73.4827 17.7573 73.312 17.864L72.032 18.568C71.8827 18.6533 71.7653 18.696 71.68 18.696C71.5307 18.696 71.4027 18.6 71.296 18.408L71.2 18.248C70.5387 17.1387 69.824 16.3707 69.056 15.944C68.3093 15.496 67.3173 15.272 66.08 15.272H60.896V22.792H63.712C64.672 22.792 65.4187 22.6107 65.952 22.248C66.4853 21.8853 66.752 21.352 66.752 20.648V20.424C66.752 20.104 66.912 19.944 67.232 19.944H68.192C68.512 19.944 68.672 20.104 68.672 20.424V27.688C68.672 28.008 68.512 28.168 68.192 28.168H67.232C66.912 28.168 66.752 28.008 66.752 27.688V27.496C66.752 26.7707 66.4853 26.2373 65.952 25.896C65.44 25.5333 64.6933 25.352 63.712 25.352H60.896V31.688C60.896 33.7147 61.632 34.728 63.104 34.728H65.184C66.7627 34.728 68.0427 34.5787 69.024 34.28C70.0267 33.9813 70.8587 33.48 71.52 32.776C72.2027 32.072 72.8427 31.1227 73.44 29.928L73.536 29.736C73.6427 29.5653 73.7813 29.48 73.952 29.48C74.0587 29.48 74.144 29.5013 74.208 29.544L75.232 30.152ZM92.8038 31.08C92.8038 31.848 92.9211 32.5413 93.1558 33.16C93.3904 33.7573 93.9024 34.1093 94.6917 34.216C94.9478 34.2373 95.0758 34.376 95.0758 34.632V35.688C95.0758 35.9867 94.9158 36.136 94.5958 36.136C93.5504 36.136 92.6758 36.2 91.9718 36.328C91.2891 36.4347 90.6918 36.584 90.1798 36.776C89.6891 36.9467 89.1984 37.1387 88.7078 37.352C88.6224 37.3947 88.5478 37.416 88.4838 37.416H88.4198C88.3557 37.416 88.3237 37.384 88.3237 37.32C88.3664 36.8293 88.4091 36.3493 88.4517 35.88C88.5157 35.4107 88.5904 34.9413 88.6757 34.472C88.5691 34.7493 88.3344 35.1227 87.9718 35.592C87.6304 36.0613 87.1184 36.488 86.4358 36.872C85.7744 37.2347 84.8997 37.416 83.8117 37.416C83.0864 37.416 82.3077 37.2667 81.4757 36.968C80.6651 36.6693 79.8971 36.1893 79.1717 35.528C78.4464 34.8667 77.8491 34.0027 77.3797 32.936C76.9317 31.848 76.7077 30.5253 76.7077 28.968C76.7077 26.984 77.0597 25.384 77.7637 24.168C78.4891 22.9307 79.4171 22.024 80.5477 21.448C81.6997 20.872 82.9157 20.584 84.1957 20.584C85.8171 20.584 87.1931 21.0853 88.3237 22.088V20.04C88.3237 19.464 88.2811 18.9093 88.1958 18.376C88.1317 17.8427 87.9717 17.3947 87.7157 17.032C87.4597 16.648 87.0331 16.424 86.4358 16.36C86.1798 16.3387 86.0518 16.2 86.0518 15.944V14.856C86.0518 14.728 86.0944 14.6427 86.1797 14.6C86.2651 14.536 86.3824 14.4827 86.5317 14.44C88.2171 13.8853 89.5291 13.3307 90.4677 12.776C91.4277 12.2213 92.1211 11.784 92.5478 11.464C92.6117 11.4213 92.6651 11.4 92.7078 11.4H92.7397C92.7824 11.4 92.8038 11.4213 92.8038 11.464V31.08ZM88.3237 26.632C88.3237 25.6293 87.9931 24.776 87.3317 24.072C86.6917 23.368 85.8384 23.016 84.7717 23.016C83.7477 23.016 82.9477 23.24 82.3717 23.688C81.7957 24.136 81.3904 24.7333 81.1557 25.48C80.9424 26.2267 80.8357 27.048 80.8357 27.944C80.8357 29.992 81.2411 31.6133 82.0517 32.808C82.8837 34.0027 83.9504 34.6 85.2517 34.6C85.8277 34.6 86.3291 34.4613 86.7557 34.184C87.1824 33.8853 87.5237 33.5227 87.7797 33.096C88.0571 32.6693 88.2384 32.264 88.3237 31.88V26.632ZM112.804 30.536C112.804 31.0907 112.836 31.6453 112.9 32.2C112.985 32.7333 113.156 33.192 113.412 33.576C113.689 33.9387 114.116 34.152 114.692 34.216C114.863 34.2373 114.959 34.2907 114.98 34.376C115.023 34.44 115.044 34.5253 115.044 34.632V35.688C115.044 35.9867 114.895 36.136 114.596 36.136C113.551 36.136 112.676 36.2 111.972 36.328C111.289 36.4347 110.692 36.584 110.18 36.776C109.689 36.9467 109.199 37.1387 108.708 37.352C108.623 37.3947 108.537 37.416 108.452 37.416H108.388C108.345 37.416 108.324 37.384 108.324 37.32C108.324 37.256 108.356 36.936 108.42 36.36C108.505 35.7627 108.644 34.7387 108.836 33.288C108.537 33.8853 108.121 34.504 107.588 35.144C107.055 35.784 106.404 36.328 105.636 36.776C104.889 37.2027 104.025 37.416 103.044 37.416C101.892 37.416 100.953 37.2453 100.228 36.904C99.524 36.5413 98.98 36.072 98.596 35.496C98.212 34.8987 97.9453 34.2373 97.796 33.512C97.668 32.7653 97.604 32.008 97.604 31.24V25.96C97.604 25.0853 97.4013 24.36 96.996 23.784C96.612 23.208 96.0253 22.92 95.236 22.92H95.108C94.788 22.92 94.628 22.76 94.628 22.44V21.48C94.628 21.16 94.788 21 95.108 21H101.604C101.924 21 102.084 21.16 102.084 21.48V31.432C102.084 32.008 102.137 32.5413 102.244 33.032C102.351 33.5013 102.564 33.8853 102.884 34.184C103.225 34.4613 103.727 34.6 104.388 34.6C104.921 34.6 105.455 34.472 105.988 34.216C106.521 33.9387 106.991 33.5973 107.396 33.192C107.823 32.7653 108.121 32.328 108.292 31.88V25.96C108.292 25.0853 108.089 24.36 107.684 23.784C107.3 23.208 106.724 22.92 105.956 22.92H105.892C105.572 22.92 105.412 22.76 105.412 22.44V21.48C105.412 21.16 105.572 21 105.892 21H112.324C112.644 21 112.804 21.16 112.804 21.48V30.536ZM129.816 32.68C129.987 32.808 130.072 32.9467 130.072 33.096C130.072 33.1387 130.051 33.224 130.008 33.352C129.389 34.7173 128.472 35.7413 127.256 36.424C126.061 37.0853 124.749 37.416 123.32 37.416C122.125 37.416 121.037 37.16 120.056 36.648C119.075 36.1147 118.243 35.4107 117.56 34.536C116.877 33.6613 116.376 32.68 116.056 31.592C115.736 30.504 115.619 29.384 115.704 28.232C115.853 26.4613 116.344 25.0107 117.176 23.88C118.008 22.7493 119.011 21.9173 120.184 21.384C121.379 20.8507 122.573 20.584 123.768 20.584C125.176 20.584 126.317 20.7973 127.192 21.224C128.067 21.6507 128.739 22.2053 129.208 22.888C129.677 23.5707 129.997 24.2853 130.168 25.032C130.189 25.1173 130.2 25.192 130.2 25.256C130.2 25.4267 130.072 25.544 129.816 25.608L126.136 26.568C126.008 26.6107 125.912 26.632 125.848 26.632C125.699 26.632 125.624 26.5573 125.624 26.408C125.624 26.3227 125.624 26.2373 125.624 26.152C125.645 26.0667 125.656 25.9493 125.656 25.8C125.656 25.1173 125.443 24.5093 125.016 23.976C124.589 23.4427 123.928 23.176 123.032 23.176C122.221 23.176 121.581 23.432 121.112 23.944C120.643 24.456 120.301 25.1173 120.088 25.928C119.896 26.7173 119.8 27.5493 119.8 28.424C119.8 29.4693 119.939 30.4613 120.216 31.4C120.493 32.3387 120.941 33.1067 121.56 33.704C122.2 34.28 123.064 34.568 124.152 34.568C125.005 34.568 125.795 34.3653 126.52 33.96C127.245 33.5333 127.843 32.9573 128.312 32.232C128.397 32.0827 128.525 32.008 128.696 32.008C128.803 32.008 128.899 32.04 128.984 32.104L129.816 32.68ZM147.578 31.08C147.578 31.848 147.696 32.5413 147.93 33.16C148.165 33.7573 148.677 34.1093 149.466 34.216C149.722 34.2373 149.85 34.376 149.85 34.632V35.688C149.85 35.9867 149.69 36.136 149.37 36.136C148.325 36.136 147.45 36.2 146.746 36.328C146.064 36.4347 145.466 36.584 144.954 36.776C144.464 36.9467 143.973 37.1387 143.482 37.352C143.397 37.3947 143.322 37.416 143.258 37.416H143.162C143.12 37.416 143.098 37.3733 143.098 37.288C143.098 37.2027 143.12 37 143.162 36.68C143.205 36.3387 143.248 35.9653 143.29 35.56C143.354 35.1333 143.408 34.7707 143.45 34.472C143.344 34.7493 143.109 35.1227 142.746 35.592C142.405 36.0613 141.893 36.488 141.21 36.872C140.549 37.2347 139.674 37.416 138.586 37.416C137.861 37.416 137.082 37.2667 136.25 36.968C135.44 36.6693 134.672 36.1893 133.946 35.528C133.221 34.8667 132.624 34.0027 132.154 32.936C131.706 31.848 131.482 30.5253 131.482 28.968C131.482 26.984 131.834 25.384 132.538 24.168C133.264 22.9307 134.192 22.024 135.322 21.448C136.474 20.872 137.69 20.584 138.97 20.584C140.016 20.584 140.976 20.744 141.85 21.064C142.725 21.384 143.493 21.8427 144.154 22.44C144.709 22.2053 145.178 21.992 145.562 21.8C145.968 21.5867 146.309 21.3733 146.586 21.16C146.693 21.0747 146.8 20.9893 146.906 20.904C147.034 20.8187 147.173 20.7333 147.322 20.648C147.386 20.6053 147.44 20.584 147.482 20.584H147.514C147.557 20.584 147.578 20.6053 147.578 20.648V31.08ZM143.098 26.056C143.034 25.6293 142.874 25.16 142.618 24.648C142.384 24.1147 142.021 23.6667 141.53 23.304C141.04 22.92 140.378 22.728 139.546 22.728C138.522 22.728 137.722 22.984 137.146 23.496C136.57 23.9867 136.165 24.6267 135.93 25.416C135.717 26.2053 135.61 27.048 135.61 27.944C135.61 29.992 136.016 31.6133 136.826 32.808C137.658 34.0027 138.725 34.6 140.026 34.6C140.794 34.6 141.392 34.44 141.818 34.12C142.266 33.7787 142.586 33.4373 142.778 33.096C142.97 32.7547 143.077 32.552 143.098 32.488V26.056ZM162.318 34.696C162.382 34.7813 162.414 34.8773 162.414 34.984C162.414 35.112 162.328 35.2293 162.158 35.336L161.198 35.944C160.622 36.3067 159.928 36.648 159.118 36.968C158.307 37.2667 157.496 37.416 156.686 37.416C156.046 37.416 155.438 37.2667 154.862 36.968C154.307 36.6693 153.859 36.168 153.518 35.464C153.176 34.7387 153.006 33.7467 153.006 32.488V26.568C153.006 25.992 152.974 25.4267 152.91 24.872C152.846 24.296 152.643 23.8267 152.302 23.464C151.982 23.1013 151.438 22.92 150.67 22.92C150.35 22.92 150.19 22.76 150.19 22.44V21.48C150.19 21.16 150.35 21 150.67 21H153.006V18.856C153.006 18.5787 153.102 18.3867 153.294 18.28C153.763 18.024 154.382 17.672 155.15 17.224C155.918 16.7547 156.6 16.2213 157.198 15.624C157.24 15.5813 157.294 15.56 157.358 15.56H157.422C157.464 15.56 157.486 15.592 157.486 15.656V21H161.774C162.094 21 162.254 21.16 162.254 21.48V22.856C162.254 23.176 162.094 23.336 161.774 23.336H157.486V32.488C157.486 33.32 157.614 33.896 157.87 34.216C158.126 34.5147 158.446 34.664 158.83 34.664C159.192 34.664 159.576 34.568 159.982 34.376C160.387 34.1627 160.76 33.9493 161.102 33.736C161.251 33.6507 161.368 33.608 161.454 33.608C161.582 33.608 161.699 33.6933 161.806 33.864L162.318 34.696ZM173.131 35.08C173.451 35.08 173.611 35.24 173.611 35.56V36.52C173.611 36.84 173.429 37 173.067 37H164.011C163.648 37 163.467 36.84 163.467 36.52V35.56C163.467 35.24 163.627 35.08 163.947 35.08H164.011C164.8 35.08 165.376 34.792 165.739 34.216C166.123 33.6187 166.315 32.8933 166.315 32.04V28.648C166.315 28.1573 166.272 27.6667 166.187 27.176C166.123 26.6853 165.963 26.2587 165.707 25.896C165.451 25.5333 165.024 25.32 164.427 25.256C164.171 25.2347 164.043 25.096 164.043 24.84V23.752C164.043 23.624 164.085 23.5387 164.171 23.496C164.256 23.432 164.373 23.3787 164.523 23.336C166.208 22.7813 167.499 22.216 168.395 21.64C169.312 21.0427 169.984 20.52 170.411 20.072C170.453 20.0293 170.496 20.008 170.539 20.008H170.635C170.677 20.008 170.699 20.0293 170.699 20.072V32.008C170.699 32.8613 170.891 33.5867 171.275 34.184C171.659 34.7813 172.245 35.08 173.035 35.08H173.131ZM168.555 13.32C169.109 13.32 169.653 13.5867 170.187 14.12C170.72 14.6533 170.987 15.1867 170.987 15.72C170.987 16.2533 170.72 16.7867 170.187 17.32C169.653 17.8533 169.109 18.12 168.555 18.12C168.043 18.12 167.509 17.8533 166.955 17.32C166.421 16.808 166.155 16.2747 166.155 15.72C166.155 15.1867 166.421 14.6533 166.955 14.12C167.488 13.5867 168.021 13.32 168.555 13.32ZM182.226 20.584C183.442 20.584 184.562 20.8293 185.586 21.32C186.632 21.7893 187.528 22.44 188.274 23.272C189.021 24.0827 189.597 25 190.002 26.024C190.429 27.0267 190.642 28.072 190.642 29.16C190.642 30.7387 190.269 32.1573 189.522 33.416C188.776 34.6533 187.794 35.6347 186.578 36.36C185.362 37.064 184.04 37.416 182.61 37.416C181.394 37.416 180.274 37.1813 179.25 36.712C178.226 36.2427 177.33 35.6133 176.562 34.824C175.816 34.0133 175.229 33.096 174.802 32.072C174.397 31.0267 174.194 29.9387 174.194 28.808C174.194 27.2507 174.557 25.8533 175.282 24.616C176.008 23.3787 176.978 22.3973 178.194 21.672C179.41 20.9467 180.754 20.584 182.226 20.584ZM183.602 34.824C184.008 34.824 184.456 34.7173 184.946 34.504C185.437 34.2907 185.864 33.9173 186.226 33.384C186.61 32.8507 186.802 32.1147 186.802 31.176C186.802 30.4293 186.653 29.608 186.354 28.712C186.077 27.7947 185.682 26.92 185.17 26.088C184.68 25.2347 184.093 24.5413 183.41 24.008C182.749 23.4533 182.024 23.176 181.234 23.176C180.36 23.176 179.602 23.5067 178.962 24.168C178.322 24.808 178.002 25.6933 178.002 26.824C178.002 27.5493 178.141 28.3707 178.418 29.288C178.717 30.2053 179.112 31.0907 179.602 31.944C180.114 32.776 180.712 33.4693 181.394 34.024C182.077 34.5573 182.813 34.824 183.602 34.824ZM209.729 26.568V32.04C209.729 33.2133 209.91 34.0133 210.273 34.44C210.657 34.8667 211.158 35.08 211.777 35.08H212.033C212.353 35.08 212.513 35.24 212.513 35.56V36.52C212.513 36.84 212.353 37 212.033 37H203.521C203.201 37 203.041 36.84 203.041 36.52V35.56C203.041 35.24 203.201 35.08 203.521 35.08H203.745C204.193 35.08 204.555 34.8667 204.833 34.44C205.11 34.0133 205.249 33.2133 205.249 32.04V26.568C205.249 25.544 205.089 24.7653 204.769 24.232C204.449 23.6773 203.841 23.4 202.945 23.4C202.411 23.4 201.878 23.5387 201.345 23.816C200.811 24.072 200.342 24.4133 199.937 24.84C199.531 25.2453 199.233 25.6827 199.041 26.152V32.04C199.041 32.8933 199.222 33.6187 199.585 34.216C199.969 34.792 200.47 35.08 201.089 35.08H201.153C201.473 35.08 201.633 35.24 201.633 35.56V36.52C201.633 36.84 201.473 37 201.153 37H192.161C191.841 37 191.681 36.84 191.681 36.52V35.56C191.681 35.24 191.841 35.08 192.161 35.08H192.225C193.014 35.08 193.601 34.792 193.985 34.216C194.369 33.6187 194.561 32.8933 194.561 32.04V28.008C194.561 27.432 194.518 26.8773 194.433 26.344C194.369 25.8107 194.198 25.3627 193.921 25C193.665 24.616 193.238 24.392 192.641 24.328C192.406 24.3067 192.289 24.168 192.289 23.912V22.824C192.289 22.6107 192.438 22.472 192.737 22.408C194.273 22.1733 195.585 21.8107 196.673 21.32C197.782 20.8293 198.55 20.4347 198.977 20.136C199.083 20.0507 199.169 20.008 199.233 20.008H199.265C199.307 20.008 199.329 20.0293 199.329 20.072C199.329 20.1147 199.318 20.2 199.297 20.328L198.753 24.264C199.051 23.7733 199.446 23.2507 199.937 22.696C200.427 22.12 201.035 21.6293 201.761 21.224C202.486 20.7973 203.329 20.584 204.289 20.584C205.441 20.584 206.379 20.7547 207.105 21.096C207.83 21.4373 208.374 21.896 208.737 22.472C209.121 23.048 209.377 23.688 209.505 24.392C209.654 25.096 209.729 25.8213 209.729 26.568Z" fill="#F6F1E7"/>
<path d="M41.04 27.88C41.52 28.04 41.76 28.3333 41.76 28.76C41.76 28.9733 41.68 29.2133 41.52 29.48L38.08 35.48C37.76 35.96 37.4133 36.2 37.04 36.2C36.88 36.2 36.6667 36.12 36.4 35.96L30.4 31.08C29.3333 30.1733 28.4267 29.3733 27.68 28.68C26.9333 27.9867 26.24 27.3733 25.6 26.84C25.7067 27.6933 25.8667 28.6267 26.08 29.64C26.3467 30.6 26.5867 31.7467 26.8 33.08L28 40.76C28.1067 41.1867 28.0267 41.5067 27.76 41.72C27.4933 41.88 27.1733 41.96 26.8 41.96H19.84C19.4667 41.96 19.1467 41.8533 18.88 41.64C18.6667 41.4267 18.5867 41.1333 18.64 40.76L19.84 33.08C20.0533 31.7467 20.2667 30.6 20.48 29.64C20.7467 28.6267 20.96 27.6933 21.12 26.84C20.48 27.3733 19.7867 28.0133 19.04 28.76C18.2933 29.4533 17.3867 30.2267 16.32 31.08L10.24 35.96C10.0267 36.1733 9.78667 36.28 9.52 36.28C9.30667 36.28 9.12 36.2 8.96 36.04C8.85333 35.88 8.74667 35.6933 8.64 35.48L5.12 29.48C4.90667 29.1067 4.8 28.8133 4.8 28.6C4.8 28.2267 5.06667 27.96 5.6 27.8L12.88 25C14.1067 24.52 15.2 24.1467 16.16 23.88C17.1733 23.56 18.08 23.2667 18.88 23C18.08 22.68 17.1733 22.3867 16.16 22.12C15.2 21.8 14.1067 21.4 12.88 20.92L5.6 18.12C5.12 17.96 4.88 17.6667 4.88 17.24C4.88 16.9733 4.96 16.7333 5.12 16.52L8.64 10.44C8.90667 10.0133 9.22667 9.8 9.6 9.8C9.86667 9.8 10.08 9.88 10.24 10.04L16.32 14.92C17.3867 15.7733 18.2933 16.5467 19.04 17.24C19.7867 17.9333 20.48 18.5467 21.12 19.08C20.96 18.28 20.7467 17.3733 20.48 16.36C20.2667 15.3467 20.0533 14.1733 19.84 12.84L18.64 5.16C18.5333 4.36 18.9333 3.96 19.84 3.96H26.8C27.7067 3.96 28.1067 4.36 28 5.16L26.8 12.84C26.5867 14.1733 26.3467 15.3467 26.08 16.36C25.8667 17.3733 25.7067 18.28 25.6 19.08C26.24 18.5467 26.9333 17.9333 27.68 17.24C28.48 16.5467 29.3867 15.7733 30.4 14.92L36.4 10.04C36.6667 9.88 36.88 9.8 37.04 9.8C37.52 9.8 37.8667 10.0133 38.08 10.44L41.52 16.52C41.68 16.7333 41.76 16.9733 41.76 17.24C41.76 17.6667 41.52 17.96 41.04 18.12L33.84 20.92C32.6133 21.4 31.4933 21.8 30.48 22.12C29.4667 22.3867 28.5867 22.68 27.84 23C28.5867 23.2667 29.4667 23.56 30.48 23.88C31.4933 24.1467 32.6133 24.52 33.84 25L41.04 27.88Z" fill="#8FA56A"/>
</svg>
